<mxfile host="app.diagrams.net" agent="Mozilla/5.0 (Windows NT 10.0; Win64; x64; rv:143.0) Gecko/20100101 Firefox/143.0" version="28.2.0">
  <diagram name="Страница — 1" id="r_zdTmEf6iypGUSkc-GM">
    <mxGraphModel dx="1375" dy="787" grid="1" gridSize="10" guides="1" tooltips="1" connect="1" arrows="1" fold="1" page="1" pageScale="1" pageWidth="827" pageHeight="1169" math="0" shadow="0">
      <root>
        <mxCell id="0" />
        <mxCell id="1" parent="0" />
        <mxCell id="HEdC6EzMkmrNth7F3knK-8" style="edgeStyle=orthogonalEdgeStyle;rounded=0;orthogonalLoop=1;jettySize=auto;html=1;" edge="1" parent="1" source="HEdC6EzMkmrNth7F3knK-5" target="HEdC6EzMkmrNth7F3knK-6">
          <mxGeometry relative="1" as="geometry" />
        </mxCell>
        <mxCell id="HEdC6EzMkmrNth7F3knK-9" style="edgeStyle=orthogonalEdgeStyle;rounded=0;orthogonalLoop=1;jettySize=auto;html=1;" edge="1" parent="1" source="HEdC6EzMkmrNth7F3knK-5" target="HEdC6EzMkmrNth7F3knK-7">
          <mxGeometry relative="1" as="geometry" />
        </mxCell>
        <mxCell id="HEdC6EzMkmrNth7F3knK-5" value="П.К." style="shape=cube;whiteSpace=wrap;html=1;boundedLbl=1;backgroundOutline=1;darkOpacity=0.05;darkOpacity2=0.1;" vertex="1" parent="1">
          <mxGeometry x="140" y="240" width="120" height="80" as="geometry" />
        </mxCell>
        <mxCell id="HEdC6EzMkmrNth7F3knK-21" style="edgeStyle=orthogonalEdgeStyle;rounded=0;orthogonalLoop=1;jettySize=auto;html=1;entryX=0.5;entryY=1;entryDx=0;entryDy=0;" edge="1" parent="1" source="HEdC6EzMkmrNth7F3knK-6" target="HEdC6EzMkmrNth7F3knK-17">
          <mxGeometry relative="1" as="geometry" />
        </mxCell>
        <mxCell id="HEdC6EzMkmrNth7F3knK-6" value="USBCANB адапетр" style="rounded=1;whiteSpace=wrap;html=1;" vertex="1" parent="1">
          <mxGeometry x="320" y="200" width="120" height="60" as="geometry" />
        </mxCell>
        <mxCell id="HEdC6EzMkmrNth7F3knK-12" style="edgeStyle=orthogonalEdgeStyle;rounded=0;orthogonalLoop=1;jettySize=auto;html=1;entryX=0;entryY=0.5;entryDx=0;entryDy=0;" edge="1" parent="1" source="HEdC6EzMkmrNth7F3knK-7" target="HEdC6EzMkmrNth7F3knK-11">
          <mxGeometry relative="1" as="geometry" />
        </mxCell>
        <mxCell id="HEdC6EzMkmrNth7F3knK-7" value="JLINK" style="rounded=1;whiteSpace=wrap;html=1;" vertex="1" parent="1">
          <mxGeometry x="320" y="310" width="120" height="60" as="geometry" />
        </mxCell>
        <mxCell id="HEdC6EzMkmrNth7F3knK-16" style="edgeStyle=orthogonalEdgeStyle;rounded=0;orthogonalLoop=1;jettySize=auto;html=1;" edge="1" parent="1" source="HEdC6EzMkmrNth7F3knK-11" target="HEdC6EzMkmrNth7F3knK-14">
          <mxGeometry relative="1" as="geometry" />
        </mxCell>
        <mxCell id="HEdC6EzMkmrNth7F3knK-11" value="Адаптер JLINK под SWD порт платы" style="rounded=0;whiteSpace=wrap;html=1;" vertex="1" parent="1">
          <mxGeometry x="480" y="310" width="140" height="60" as="geometry" />
        </mxCell>
        <mxCell id="HEdC6EzMkmrNth7F3knK-14" value="Плата ДУП" style="ellipse;whiteSpace=wrap;html=1;" vertex="1" parent="1">
          <mxGeometry x="660" y="190" width="120" height="80" as="geometry" />
        </mxCell>
        <mxCell id="HEdC6EzMkmrNth7F3knK-22" style="edgeStyle=orthogonalEdgeStyle;rounded=0;orthogonalLoop=1;jettySize=auto;html=1;" edge="1" parent="1" source="HEdC6EzMkmrNth7F3knK-17" target="HEdC6EzMkmrNth7F3knK-14">
          <mxGeometry relative="1" as="geometry" />
        </mxCell>
        <mxCell id="HEdC6EzMkmrNth7F3knK-17" value="Адаптер для подключения ДУП" style="rounded=0;whiteSpace=wrap;html=1;" vertex="1" parent="1">
          <mxGeometry x="480" y="80" width="140" height="60" as="geometry" />
        </mxCell>
        <mxCell id="HEdC6EzMkmrNth7F3knK-20" style="edgeStyle=orthogonalEdgeStyle;rounded=0;orthogonalLoop=1;jettySize=auto;html=1;entryX=0;entryY=0.5;entryDx=0;entryDy=0;" edge="1" parent="1" source="HEdC6EzMkmrNth7F3knK-19" target="HEdC6EzMkmrNth7F3knK-17">
          <mxGeometry relative="1" as="geometry" />
        </mxCell>
        <mxCell id="HEdC6EzMkmrNth7F3knK-19" value="Блок питания" style="shape=cube;whiteSpace=wrap;html=1;boundedLbl=1;backgroundOutline=1;darkOpacity=0.05;darkOpacity2=0.1;" vertex="1" parent="1">
          <mxGeometry x="320" y="70" width="120" height="80" as="geometry" />
        </mxCell>
      </root>
    </mxGraphModel>
  </diagram>
</mxfile>
